name C:\Users\u0101727\Documents\MyRepositories\upper-imu-dc\Results\main_tracking\Case_44\FLX01_angularVelocities_groundFrame.mot
datacolumns 4
datarows 47
range 0.51000000 0.97000000
endheader 
time	radius_imu_x	radius_imu_y	radius_imu_z	
          0.51000000	         -0.44017641	         -2.20391978	          0.45494131	
          0.52000000	         -0.43689854	         -2.20268731	          0.46417678	
          0.53000000	         -0.43415286	         -2.20086826	          0.47351177	
          0.54000000	         -0.43197456	         -2.19882820	          0.48314426	
          0.55000000	         -0.43051613	         -2.19655630	          0.49320805	
          0.56000000	         -0.42990464	         -2.19408051	          0.50380496	
          0.57000000	         -0.43025688	         -2.19148353	          0.51503687	
          0.58000000	         -0.43166382	         -2.18887986	          0.52700095	
          0.59000000	         -0.43418959	         -2.18642099	          0.53979712	
          0.60000000	         -0.43786666	         -2.18432870	          0.55354352	
          0.61000000	         -0.44269824	         -2.18281513	          0.56834747	
          0.62000000	         -0.44867283	         -2.18206311	          0.58430175	
          0.63000000	         -0.45574873	         -2.18221914	          0.60148754	
          0.64000000	         -0.46386230	         -2.18336567	          0.61996392	
          0.65000000	         -0.47294264	         -2.18552953	          0.63977490	
          0.66000000	         -0.48289998	         -2.18869187	          0.66095313	
          0.67000000	         -0.49362028	         -2.19279846	          0.68351747	
          0.68000000	         -0.50497102	         -2.19774633	          0.70745964	
          0.69000000	         -0.51681421	         -2.20337095	          0.73273629	
          0.70000000	         -0.52901039	         -2.20946656	          0.75928212	
          0.71000000	         -0.54141589	         -2.21580324	          0.78701567	
          0.72000000	         -0.55388024	         -2.22214676	          0.81584434	
          0.73000000	         -0.56624989	         -2.22826894	          0.84566803	
          0.74000000	         -0.57837996	         -2.23394556	          0.87637111	
          0.75000000	         -0.59013915	         -2.23896180	          0.90782206	
          0.76000000	         -0.60140137	         -2.24314272	          0.93989106	
          0.77000000	         -0.61203988	         -2.24637536	          0.97246130	
          0.78000000	         -0.62192871	         -2.24861409	          1.00543258	
          0.79000000	         -0.63095234	         -2.24986777	          1.03871656	
          0.80000000	         -0.63901135	         -2.25019197	          1.07223555	
          0.81000000	         -0.64602227	         -2.24968205	          1.10592807	
          0.82000000	         -0.65191174	         -2.24846680	          1.13975054	
          0.83000000	         -0.65661148	         -2.24670211	          1.17367684	
          0.84000000	         -0.66005543	         -2.24455160	          1.20768743	
          0.85000000	         -0.66218047	         -2.24216812	          1.24175486	
          0.86000000	         -0.66292500	         -2.23968471	          1.27584189	
          0.87000000	         -0.66222607	         -2.23720755	          1.30990165	
          0.88000000	         -0.66002668	         -2.23480825	          1.34387384	
          0.89000000	         -0.65628780	         -2.23251403	          1.37767803	
          0.90000000	         -0.65100043	         -2.23030271	          1.41121237	
          0.91000000	         -0.64419531	         -2.22810167	          1.44435626	
          0.92000000	         -0.63595228	         -2.22578758	          1.47697261	
          0.93000000	         -0.62641084	         -2.22318594	          1.50890893	
          0.94000000	         -0.61577978	         -2.22007153	          1.53999862	
          0.95000000	         -0.60434162	         -2.21617072	          1.57006153	
          0.96000000	         -0.59244775	         -2.21116758	          1.59890219	
          0.97000000	         -0.58050315	         -2.20471444	          1.62630482	
